<?xml version="1.0" standalone="no"?>
<!DOCTYPE svg PUBLIC "-//W3C//DTD SVG 20010904//EN"
 "http://www.w3.org/TR/2001/REC-SVG-20010904/DTD/svg10.dtd">
<svg version="1.0" xmlns="http://www.w3.org/2000/svg"
 width="570.000000pt" height="438.000000pt" viewBox="0 0 570.000000 438.000000"
 preserveAspectRatio="xMidYMid meet">

<g transform="translate(0.000000,438.000000) scale(0.100000,-0.100000)"
fill="#000000" stroke="none">
<path d="M3120 2170 l0 -541 38 3 c31 3 37 7 40 28 8 75 9 75 53 30 52 -53 98
-72 175 -72 188 -1 307 172 291 420 -13 207 -120 333 -280 333 -77 0 -121 -16
-176 -66 l-41 -37 -2 219 -3 218 -47 3 -48 3 0 -541z m377 100 c141 -63 168
-382 45 -514 -79 -84 -202 -73 -286 25 l-36 43 0 166 c0 166 0 167 28 203 69
92 158 119 249 77z"/>
<path d="M4180 2699 c-100 -17 -187 -75 -226 -151 -42 -81 -25 -224 34 -290
50 -56 100 -82 237 -123 240 -72 286 -110 286 -234 1 -131 -87 -202 -250 -201
-122 1 -192 43 -242 145 -17 36 -34 65 -38 65 -3 0 -25 -7 -48 -16 -37 -14
-42 -20 -37 -38 50 -161 215 -259 411 -242 236 19 360 184 298 394 -30 100
-98 145 -320 211 -195 58 -235 89 -251 189 -17 109 66 198 196 209 111 10 215
-53 251 -151 15 -40 25 -42 91 -17 26 10 27 12 16 38 -71 164 -222 243 -408
212z"/>
<path d="M1024 2674 c4 -10 83 -147 176 -305 l170 -288 0 -225 0 -226 50 0 50
0 0 221 0 221 185 306 186 307 -47 3 c-25 2 -52 1 -58 -1 -6 -3 -76 -118 -156
-256 -80 -138 -148 -251 -151 -251 -3 0 -71 114 -151 253 l-145 252 -58 3
c-51 3 -57 1 -51 -14z"/>
<path d="M2070 2296 c0 -365 1 -399 20 -458 37 -121 132 -197 270 -219 186
-29 349 40 415 174 38 79 46 182 43 557 l-3 335 -47 3 -48 3 0 -370 c0 -223
-4 -390 -11 -420 -25 -119 -110 -189 -240 -199 -93 -6 -167 17 -223 71 -73 70
-76 89 -76 534 l0 383 -50 0 -50 0 0 -394z"/>
<path d="M987 1550 c22 -23 23 -23 43 -5 19 17 21 17 40 0 19 -17 21 -17 40 0
19 17 21 17 40 0 19 -17 21 -17 40 0 19 17 21 17 40 0 19 -17 21 -17 40 0 19
17 21 17 40 0 19 -17 21 -17 40 0 19 17 21 17 40 0 19 -17 21 -17 40 0 19 17
21 17 40 0 19 -17 21 -17 40 0 19 17 21 17 40 0 19 -17 21 -17 40 0 19 17 21
17 40 0 19 -17 21 -17 40 0 19 17 21 17 40 0 19 -17 21 -17 40 0 19 17 21 17
40 0 19 -17 21 -17 40 0 19 17 21 17 40 0 19 -17 21 -17 40 0 19 17 21 17 40
0 19 -17 21 -17 40 0 19 17 21 17 40 0 19 -17 21 -17 40 0 19 17 21 17 40 0
19 -17 21 -17 40 0 19 17 21 17 40 0 19 -17 21 -17 40 0 19 17 21 17 40 0 19
-17 21 -17 40 0 19 17 21 17 40 0 19 -17 21 -17 40 0 19 17 21 17 40 0 19 -17
21 -17 40 0 19 17 21 17 40 0 19 -17 21 -17 40 0 19 17 21 17 40 0 19 -17 21
-17 40 0 19 17 21 17 40 0 19 -17 21 -17 40 0 19 17 21 17 40 0 19 -17 21 -17
40 0 19 17 21 17 40 0 19 -17 21 -17 40 0 19 17 21 17 40 0 19 -17 21 -17 40
0 19 17 21 17 40 0 19 -17 21 -17 40 0 19 17 21 17 40 0 19 -17 21 -17 40 0
19 17 21 17 40 0 19 -17 21 -17 40 0 19 17 21 17 40 0 19 -17 21 -17 40 0 19
17 21 17 40 0 19 -17 21 -17 40 0 19 17 21 17 40 0 19 -17 21 -17 40 0 19 17
21 17 40 0 19 -17 21 -17 40 0 19 17 21 17 40 0 19 -17 21 -17 40 0 19 17 21
17 40 0 19 -17 21 -17 40 0 19 17 21 17 40 0 19 -17 21 -17 40 0 19 17 21 17
40 0 19 -17 21 -17 40 0 19 17 21 17 40 0 19 -17 21 -17 40 0 19 17 21 17 40
0 19 -17 21 -17 40 0 19 17 21 17 40 0 19 -17 21 -17 40 0 19 17 21 17 40 0
19 -17 21 -17 40 0 19 17 21 17 40 0 19 -17 21 -17 40 0 19 17 21 17 40 0 19
-17 21 -17 40 0 19 17 21 17 40 0 19 -17 21 -17 40 0 19 17 21 17 40 0 19 -17
21 -17 40 0 19 17 21 17 40 0 19 -17 21 -17 40 0 19 17 21 17 40 0 19 -17 21
-17 40 0 19 17 21 17 40 0 20 -18 21 -18 43 5 l22 24 -22 -18 c-22 -18 -24
-18 -43 -1 -19 17 -21 17 -40 0 -19 -17 -21 -17 -40 0 -19 17 -21 17 -40 0
-19 -17 -21 -17 -40 0 -19 17 -21 17 -40 0 -19 -17 -21 -17 -40 0 -19 17 -21
17 -40 0 -19 -17 -21 -17 -40 0 -19 17 -21 17 -40 0 -19 -17 -21 -17 -40 0
-19 17 -21 17 -40 0 -19 -17 -21 -17 -40 0 -19 17 -21 17 -40 0 -19 -17 -21
-17 -40 0 -19 17 -21 17 -40 0 -19 -17 -21 -17 -40 0 -19 17 -21 17 -40 0 -19
-17 -21 -17 -40 0 -19 17 -21 17 -40 0 -19 -17 -21 -17 -40 0 -19 17 -21 17
-40 0 -19 -17 -21 -17 -40 0 -19 17 -21 17 -40 0 -19 -17 -21 -17 -40 0 -19
17 -21 17 -40 0 -19 -17 -21 -17 -40 0 -19 17 -21 17 -40 0 -19 -17 -21 -17
-40 0 -19 17 -21 17 -40 0 -19 -17 -21 -17 -40 0 -19 17 -21 17 -40 0 -19 -17
-21 -17 -40 0 -19 17 -21 17 -40 0 -19 -17 -21 -17 -40 0 -19 17 -21 17 -40 0
-19 -17 -21 -17 -40 0 -19 17 -21 17 -40 0 -19 -17 -21 -17 -40 0 -19 17 -21
17 -40 0 -19 -17 -21 -17 -40 0 -19 17 -21 17 -40 0 -19 -17 -21 -17 -40 0
-19 17 -21 17 -40 0 -19 -17 -21 -17 -40 0 -19 17 -21 17 -40 0 -19 -17 -21
-17 -40 0 -19 17 -21 17 -40 0 -19 -17 -21 -17 -40 0 -19 17 -21 17 -40 0 -19
-17 -21 -17 -40 0 -19 17 -21 17 -40 0 -19 -17 -21 -17 -40 0 -19 17 -21 17
-40 0 -19 -17 -21 -17 -40 0 -19 17 -21 17 -40 0 -19 -17 -21 -17 -40 0 -19
17 -21 17 -40 0 -19 -17 -21 -17 -40 0 -19 17 -21 17 -40 0 -19 -17 -21 -17
-40 0 -19 17 -21 17 -40 0 -19 -17 -21 -17 -40 0 -19 17 -21 17 -40 0 -19 -17
-21 -17 -40 0 -19 17 -21 17 -40 0 -19 -17 -21 -17 -40 0 -19 17 -21 17 -40 0
-19 -17 -21 -17 -40 0 -19 17 -21 17 -40 0 -19 -17 -21 -17 -40 0 -19 17 -21
17 -40 0 -19 -17 -21 -17 -40 0 -19 17 -21 17 -40 0 -19 -17 -21 -17 -40 0
-19 17 -21 17 -40 0 -19 -17 -21 -17 -40 0 -19 17 -21 17 -40 0 -19 -17 -21
-17 -40 0 -19 17 -21 17 -40 0 -19 -17 -21 -17 -40 0 -19 17 -21 17 -40 0 -19
-17 -21 -17 -40 0 -19 17 -21 17 -40 0 -19 -17 -21 -17 -40 0 -19 17 -21 17
-40 0 -19 -17 -21 -17 -40 0 -19 17 -21 17 -40 0 -19 -17 -21 -17 -40 0 -19
17 -21 17 -40 0 -19 -17 -21 -17 -40 0 -19 17 -21 17 -40 0 -19 -17 -21 -17
-42 1 l-23 18 22 -24z"/>
</g>
</svg>
